<?xml version="1.0" encoding="utf-8"?>
<!-- Generator: Adobe Illustrator 27.3.1, SVG Export Plug-In . SVG Version: 6.00 Build 0)  -->
<svg version="1.1" id="Layer_1" xmlns="http://www.w3.org/2000/svg" xmlns:xlink="http://www.w3.org/1999/xlink" x="0px" y="0px"
	 viewBox="0 0 200 300" style="enable-background:new 0 0 200 300;" xml:space="preserve">
<style type="text/css">
	.st0{fill:#F0DCB4;stroke:#000000;stroke-width:1.4292;stroke-miterlimit:10;}
	.st1{fill:#E54948;stroke:#000000;stroke-width:1.4292;stroke-miterlimit:10;}
	.st2{fill:#333333;stroke:#000000;stroke-width:1.4292;stroke-miterlimit:10;}
	.st3{fill:#A27E33;stroke:#000000;stroke-width:1.4292;stroke-miterlimit:10;}
	.st4{fill:#FFFFFF;stroke:#000000;stroke-width:1.4292;stroke-miterlimit:10;}
	.st5{fill:#FFC650;stroke:#000000;stroke-width:1.4292;stroke-miterlimit:10;}
</style>
<g>
	<g>
		<g>
			<path class="st0" d="M74.5,31.6c0,0-3.8-12.8,0.4-21C79.1,2.4,88.4,21.9,88.6,27S74.5,31.6,74.5,31.6z"/>
			<path class="st0" d="M121.1,31.4c0,0,3.8-12.8-0.4-21c-4.2-8.2-13.5,11.3-13.7,16.4S121.1,31.4,121.1,31.4z"/>
		</g>
	</g>
	<path class="st1" d="M129.8,223.6c-3.2,4.7-8.4,5.6-8.4,5.6s1.3,6.8,0.6,9.7c-0.7,2.9-1.8,4.4-5.7,5.1c-3.8,0.7-8.2-4.9-8.2-4.9
		s-2,5.7-6,6.6c-4,0.9-7.1-3.3-7.1-3.3c-18.6,9.3-15-13.9-15-13.9c-4.1-0.5-6.3-6-7.5-12.1l-6-6.9c0,0,9.5-8.4,10.2-8.9
		s23-12.6,23.5-13s7.7,1.1,7.7,1.1l21.3,10.9c0,0,4.9,9.9,5.8,11.5C136,212.7,129.8,223.6,129.8,223.6z"/>
	<path class="st2" d="M57.8,68.8c-0.8-4.4-1.6-14.7,5.6-23.6c0,0-29.6-1.1-27.2-22.3c0,0,22.8-17.2,35.9,4.9c0,0,27.9-12.8,48.9,0
		c0,0,19.7-20.6,40.7-6c0,0-1.6,19.3-26.5,20.8c0,0,8.7,6.7,9.1,27.4C88.9,100,57.8,68.8,57.8,68.8z"/>
	<path class="st3" d="M68.5,292.5H39.9c0,0-3.6-15.2,3.4-18.2h25.9l0.1,18.2H68.5z"/>
	<path class="st3" d="M133.5,293h28.6c0,0,3.6-15.2-3.4-18.2h-25.9l-0.1,18.2H133.5z"/>
	<path class="st4" d="M103,160c25.9,0,48.2,0,74.2,0c0.8,1.4,8.6,16.1,1.5,29.4c-2.5,4.6-6,7.6-8.6,9.3c-1.3,6.5-3.3,14.2-6.6,22.6
		c-2.9,7.3-6.1,13.5-9.1,18.6c-0.9,8.7-1.8,17.4-2.7,26.1c0.2,0,3.1-0.4,5.1,1.8c1.4,1.6,1.8,4,0.9,6h-24.3c0,0-1.8-6.9,1.6-10.4
		v-23.9c0,0-6.4-11.3-6.4-28.8c0,0-27.7-11.9-27.7-17.9h-0.5c0,6-27.7,17.9-27.7,17.9c0,17.5-6.4,28.8-6.4,28.8v23.9
		c3.5,3.5,1.6,10.4,1.6,10.4H43.7c-0.9-2-0.5-4.4,0.9-6c2-2.2,4.9-1.9,5.1-1.8c-0.9-8.7-1.8-17.4-2.7-26.1c-3-5.1-6.3-11.3-9.1-18.6
		c-3.3-8.4-5.3-16.1-6.6-22.6c-2.6-1.7-6.1-4.7-8.6-9.3c-7.2-13.3,0.7-27.9,1.5-29.4c25.9,0,48.2,0,74.2,0H103z"/>
	<path class="st2" d="M99.5,61.1c-9,0.3-35.4,1.3-57.3,21.9c-22.1,20.8-28.1,47.4-28.8,56.2c-0.3,3.5-7.8,55.2,25.2,64.6
		c3.3,0.9,10.3,6.8,18.6,4.7c13-3.2,17-20.7,17.2-21.5c3.6,0.4,12.4,0.8,21.9-4c10.5-5.3,15.5-13.7,17.2-16.8
		c1.1,2.8,4,9.3,10.9,14.6c7.5,5.7,15.3,6.4,18.2,6.6c0,1,0.1,10.1,6.9,14.6c4.4,2.9,9.1,2.4,10.6,2.2c12.6-1.5,20.2-16.9,22.6-21.9
		c9.6-19.6,6.4-39.2,5.1-46.7c-1.2-6.7-8.1-45.8-43.4-65C125.5,60.4,107.6,60.8,99.5,61.1z"/>
	<g>
		<path class="st4" d="M112.3,115.1c3.8,7.8,1,33.1-3.4,61.5c-4.4,28.5-3.9,55-3.9,55h-8.8c0,0-4.9,1.7-0.5-47.9
			c3.1-35.3-0.2-55.3-2.3-64c-1.2-4.9,0.6-10.1,4.8-12.9C102,104.2,107.1,104.4,112.3,115.1z"/>
		<path class="st5" d="M93.6,275.7c0,0-3.2-17.4-3-28.1s5.1-16.3,5.1-16.3h9.3c0,0,5.7,2.2,6.9,10.1s-0.2,34.8-0.2,34.8
			s-4.7-6.6-6.2-15.6c0,0-0.2,16.1-0.7,18.7s-5-8-5.1-17.8C99.8,261.4,99.5,271.9,93.6,275.7z"/>
	</g>
</g>
</svg>
