<?xml version="1.0" encoding="utf-8"?>
<!-- Generator: Adobe Illustrator 28.3.0, SVG Export Plug-In . SVG Version: 6.00 Build 0)  -->
<svg version="1.1" id="Layer_1" xmlns="http://www.w3.org/2000/svg" xmlns:xlink="http://www.w3.org/1999/xlink" x="0px" y="0px"
	 viewBox="0 0 260.6 261.1" style="enable-background:new 0 0 260.6 261.1;" xml:space="preserve">
<path d="M130.3,3.6C60.3,3.6,3.6,60.8,3.6,130.8s56.7,126.7,126.7,126.7S257,200.8,257,130.8S200.3,3.6,130.3,3.6z M114.4,68.8h31.8
	v91.7h-31.8V68.8z M72,68.8h31.8v22.3H72C72,91,72,68.8,72,68.8z M103.8,163.2c0,9.6-2.1,16.4-5.8,21.2c-4.2,5.3-11.7,8-21.2,8H72
	v-91.7h31.8L103.8,163.2L103.8,163.2z M188.6,192.9h-74.2v-21.7h74.2V192.9z M188.6,161h-32.4v-60.4h5.3c14.3,0,22.8,4.8,26,14.8
	c1.1,3.2,1.6,6.9,1.6,11.1V161H188.6z"/>
</svg>
