<?xml version="1.0" encoding="utf-8"?>
<!-- Generator: Adobe Illustrator 27.3.1, SVG Export Plug-In . SVG Version: 6.00 Build 0)  -->
<svg version="1.1" id="Layer_1" xmlns="http://www.w3.org/2000/svg" xmlns:xlink="http://www.w3.org/1999/xlink" x="0px" y="0px"
	 viewBox="0 0 200 300" style="enable-background:new 0 0 200 300;" xml:space="preserve">
<style type="text/css">
	.st0{fill:#FFFFFF;stroke:#000000;stroke-width:1.6235;stroke-miterlimit:10;}
	.st1{fill:#CCCCCC;stroke:#000000;stroke-width:1.6235;stroke-miterlimit:10;}
	.st2{fill:#A27E33;stroke:#000000;stroke-width:1.6235;stroke-miterlimit:10;}
	.st3{fill:#FFFFFF;stroke:#000000;stroke-width:1.6235;stroke-linecap:round;stroke-linejoin:round;stroke-miterlimit:10;}
</style>
<g>
	<path class="st0" d="M127.9,32.5c0,0,11.8-13.5,20.8-4.8c9,8.7-13.4,18.8-13.4,18.8"/>
	<path class="st0" d="M69.8,32.5c0,0-11.8-13.5-20.8-4.8s13.4,18.8,13.4,18.8"/>
	<path class="st1" d="M36.9,118.6L36.9,118.6c-5.1-5.1-7-12.6-4.7-19.1c2.3-6.5,8.6-11.2,16-11.9c-6.2-4.2-8.4-12.1-5.5-18.2
		c2.4-5.1,8-8.4,14.1-8c-3.5-8.3-2.3-17.8,3.3-24.6c7.5-9.2,19.1-8.6,20.2-8.6c0-0.1,0-0.1,0-0.2c0-5.2,3.4-9.9,8.3-11.6
		c7.8-2.6,22.6-5,30.2,11.8c1.1-0.1,12.6-0.7,20.2,8.6c5.6,6.8,6.8,16.3,3.3,24.6c6.1-0.3,11.7,2.9,14.1,8
		c2.9,6.2,0.7,14.1-5.5,18.2c7.4,0.7,13.7,5.3,16,11.9c2.3,6.5,0.4,14-4.8,19.1"/>
	<polyline class="st2" points="70.7,274.3 70.7,289 47.7,289 47.7,270.5 	"/>
	<polyline class="st2" points="149.3,271.8 149.3,289 126.3,289 126.3,273.8 	"/>
	<path class="st0" d="M178.5,150.4c0.3,0.4,5.1,5.7,3.3,12.7c-1.3,5-5.4,8.8-10.5,9.9c3.2,1.3,5.6,3.6,7.2,6.3
		c1.8,3.2,2.4,7,1.4,10.5c-1.6,5.8-7.1,10.1-13.5,10.2c5.3,5.9,6.8,14,3.9,20.7c-3.1,7-9.7,9.5-11.1,9.9c5.1,4.3,6.8,11,4.4,16.3
		c-2.5,5.5-8.3,7-9.1,7.2c3,4.2,3,9.7,0.3,13.5c-3.3,4.6-10.3,6.1-15.8,2.8c-4.8,4.8-12.5,5-17.4,0.6c-4.7-4.3-5.5-11.6-1.7-16.9
		c-4.4-0.8-8-3.9-9.1-8c-1-3.7,0.2-7.8,3-10.6c-1.7,1-3.8,1.9-6.3,2.6c-2.9,0.8-5.5,0.9-7.5,0.8h-0.4c-2,0.1-4.5-0.1-7.5-0.8
		c-2.5-0.6-4.6-1.6-6.3-2.6c2.8,2.8,4,6.9,3,10.6c-1.1,4.1-4.7,7.2-9.1,8c3.8,5.3,3.1,12.6-1.7,16.9c-4.9,4.4-12.6,4.2-17.4-0.6
		c-5.5,3.3-12.4,1.9-15.8-2.8c-2.8-3.8-2.7-9.3,0.3-13.5c-0.8-0.2-6.6-1.7-9.1-7.2c-2.4-5.3-0.7-12,4.4-16.3c-1.3-0.5-8-3-11.1-9.9
		c0,0,0,0,0,0c-2.9-6.7-1.4-14.8,3.9-20.7c-6.4-0.1-11.9-4.4-13.5-10.2c-1.8-6.6,1.8-14,8.6-16.9c-5.1-1.1-9.2-5-10.5-9.9
		c-1.5-6,1.7-10.7,2.9-12.2c0.2-0.3,0.4-0.4,0.4-0.5c-5.6-6-6.7-15-2.8-22.1c4-7.2,12.3-11.1,20.4-9.4c-0.2-6.7,3.2-12.9,8.8-16
		c6.5-3.6,14.8-2.5,20.4,2.8c1.8-7.5,7.9-13,15.2-13.8c6.3-0.7,12.5,2.2,16.3,7.5h0.4c3.8-5.3,10-8.2,16.3-7.5
		c7.3,0.8,13.4,6.3,15.2,13.8c5.7-5.3,14-6.3,20.4-2.8c1,0.6,2,1.3,2.9,2c3.9,3.4,6.2,8.6,6,14c8.1-1.7,16.5,2.2,20.4,9.4
		C185.2,135.5,184.1,144.4,178.5,150.4z"/>
	<path class="st3" d="M87.1,121.5c0,0-9.7,32.7,14.7,28.8c24.5-3.9,3.9-35.6,3.9-35.6"/>
</g>
</svg>
